<svg width="30" height="30" viewBox="0 0 30 30" fill="none" xmlns="http://www.w3.org/2000/svg">
<path d="M24.2896 20.8082C24.1706 20.8082 24.0516 20.7647 23.9588 20.6766L18.3925 15.4548C18.1981 15.2729 18.1884 14.9663 18.3712 14.7718C18.5541 14.5755 18.8588 14.5668 19.0552 14.7506L24.6214 19.9724C24.8159 20.1543 24.8255 20.4609 24.6427 20.6554C24.5469 20.7569 24.4192 20.8082 24.2896 20.8082Z" fill="#D1A954"/>
<path d="M5.71012 20.8081C5.58146 20.8081 5.4528 20.7568 5.35703 20.6552C5.17419 20.4608 5.18387 20.1541 5.37831 19.9723L10.9465 14.7504C11.1419 14.5686 11.4485 14.5763 11.6304 14.7717C11.8132 14.9662 11.8036 15.2728 11.6091 15.4547L6.04096 20.6765C5.94809 20.7646 5.8291 20.8081 5.71012 20.8081Z" fill="#D1A954"/>
<path d="M27.5816 25.6632H2.41842C1.08539 25.6632 0 24.5788 0 23.2448V6.75411C0 5.42011 1.08539 4.33569 2.41842 4.33569H27.5816C28.9146 4.33569 30 5.42011 30 6.75411V23.2448C30 24.5788 28.9146 25.6632 27.5816 25.6632ZM2.41842 5.30306C1.61841 5.30306 0.967367 5.9541 0.967367 6.75411V23.2448C0.967367 24.0448 1.61841 24.6959 2.41842 24.6959H27.5816C28.3816 24.6959 29.0326 24.0448 29.0326 23.2448V6.75411C29.0326 5.9541 28.3816 5.30306 27.5816 5.30306H2.41842Z" fill="#D1A954"/>
<path d="M14.9999 17.4299C14.3566 17.4299 13.7133 17.2162 13.2238 16.7895L0.802769 5.95406C0.601556 5.77897 0.580274 5.47328 0.755368 5.2711C0.932396 5.06989 1.23712 5.05151 1.43833 5.22467L13.8593 16.0592C14.4775 16.598 15.5222 16.598 16.1394 16.0592L28.5449 5.24208C28.7452 5.06699 29.0499 5.08634 29.2279 5.28852C29.403 5.4907 29.3827 5.79542 29.1815 5.97148L16.7759 16.7886C16.2855 17.2162 15.6432 17.4299 14.9999 17.4299Z" fill="#D1A954"/>
</svg>
